<svg version="1.2" xmlns="http://www.w3.org/2000/svg" viewBox="0 0 14 18" width="14" height="18"><style>.A{fill:#a79363}</style><path class="A" d="m12.8 16.5l-0.8 0.5q-0.5 0.2-1.1 0.3q-0.5 0.1-1 0c-0.2 0-3.8-0.5-7.2-5.9c-2.5-3.9-3.1-6.5-2.2-8.9q0.2-0.5 0.5-0.9q0.3-0.5 0.7-0.9l0.8-0.5c0.6-0.4 1.4-0.2 1.8 0.4l1.8 2.9c0.3 0.5 0.2 1.3-0.4 1.7l-0.5 0.2l-1 0.6q0 0.2 0.1 0.3c0.2 0.8 0.5 2 1.4 3.3c0.8 1.3 1.7 2.1 2.4 2.7q0.1 0.1 0.2 0.2l1.4-0.9c0.6-0.4 1.4-0.2 1.8 0.4l1.8 2.8c0.3 0.6 0.1 1.4-0.5 1.7z"/></svg>